<svg width="670" height="115" viewBox="0 0 670 115" fill="none" xmlns="http://www.w3.org/2000/svg">
<path d="M320.928 39.0879H314.21V51.6594H312.309V37.5905H320.928V39.0879Z" fill="#005AAA"/>
<path d="M323.091 46.5477C323.091 47.6557 323.325 48.5708 323.791 49.2918C324.258 50.0139 324.95 50.3744 325.871 50.3744C326.778 50.3744 327.466 50.0139 327.936 49.2918C328.406 48.5708 328.641 47.6557 328.641 46.5477V46.3358C328.641 45.2399 328.405 44.3282 327.932 43.6006C327.459 42.8729 326.765 42.5091 325.851 42.5091C324.945 42.5091 324.258 42.8729 323.791 43.6006C323.325 44.3282 323.091 45.2399 323.091 46.3358V46.5477ZM321.19 46.3358C321.19 44.7896 321.608 43.5152 322.445 42.5136C323.281 41.512 324.417 41.0117 325.851 41.0117C327.299 41.0117 328.444 41.5097 329.282 42.5091C330.122 43.5074 330.542 44.783 330.542 46.3358V46.5477C330.542 48.1061 330.124 49.3816 329.288 50.3744C328.451 51.366 327.312 51.8618 325.871 51.8618C324.43 51.8618 323.29 51.3649 322.45 50.3688C321.61 49.3739 321.19 48.1005 321.19 46.5477V46.3358Z" fill="#005AAA"/>
<path d="M337.513 50.3744C338.098 50.3744 338.61 50.1791 339.048 49.7898C339.485 49.3994 339.703 48.9213 339.703 48.3545H341.422L341.451 48.4122C341.476 49.314 341.091 50.1148 340.293 50.8136C339.494 51.5124 338.568 51.8618 337.513 51.8618C336.045 51.8618 334.913 51.3626 334.116 50.3644C333.317 49.3661 332.919 48.1227 332.919 46.6353V46.2282C332.919 44.7541 333.32 43.5152 334.12 42.5136C334.922 41.512 336.053 41.0117 337.513 41.0117C338.677 41.0117 339.631 41.3722 340.374 42.0932C341.117 42.8153 341.476 43.7004 341.451 44.7497L341.431 44.8085H339.703C339.703 44.1707 339.496 43.6283 339.082 43.1802C338.665 42.7332 338.143 42.5091 337.513 42.5091C336.58 42.5091 335.899 42.8707 335.471 43.5961C335.044 44.3204 334.83 45.1978 334.83 46.2282V46.6353C334.83 47.6846 335.04 48.5708 335.462 49.2918C335.883 50.0139 336.567 50.3744 337.513 50.3744Z" fill="#005AAA"/>
<path d="M347.398 47.7846L347.736 49.099H347.793L350.36 41.205H352.474L348.082 53.2629C347.819 53.9661 347.441 54.5773 346.949 55.0997C346.456 55.621 345.792 55.8817 344.956 55.8817C344.801 55.8817 344.605 55.8639 344.367 55.8284C344.128 55.793 343.946 55.7597 343.817 55.7275L344.01 54.2301C343.971 54.2223 344.085 54.2301 344.352 54.249C344.619 54.2678 344.789 54.2778 344.858 54.2778C345.265 54.2778 345.596 54.0981 345.853 53.7365C346.11 53.376 346.326 52.9767 346.5 52.5386L346.954 51.4472L343.074 41.205H345.196L347.398 47.7846Z" fill="#005AAA"/>
<path d="M357.91 45.137C357.833 46.3682 357.727 47.3831 357.596 48.1861C357.464 48.987 357.266 49.6491 357.003 50.1716H361.278V42.8953H358.045L357.91 45.137ZM354.407 50.1716C354.909 50.1716 355.273 49.7567 355.502 48.9293C355.73 48.1018 355.896 46.8374 355.999 45.137L356.249 41.2049H363.179V50.1716H364.56V55.1185H362.659V51.659H355.284V55.1185H353.383V50.1716H354.407Z" fill="#005AAA"/>
<path d="M370.372 50.2678C371.061 50.2678 371.681 50.0914 372.234 49.7365C372.788 49.3827 373.148 48.9756 373.315 48.5186V46.8183H371.183C370.416 46.8183 369.803 47.0113 369.344 47.3984C368.884 47.7843 368.655 48.2391 368.655 48.7604C368.655 49.2241 368.799 49.5912 369.089 49.8618C369.378 50.1325 369.806 50.2678 370.372 50.2678ZM373.528 51.6587C373.464 51.3437 373.414 51.0653 373.379 50.8235C373.343 50.5817 373.322 50.3388 373.315 50.0937C372.962 50.5961 372.5 51.0165 371.931 51.3548C371.361 51.6931 370.748 51.8617 370.091 51.8617C369.005 51.8617 368.176 51.5844 367.606 51.0265C367.037 50.4686 366.752 49.701 366.752 48.7216C366.752 47.7233 367.156 46.9425 367.964 46.379C368.771 45.8156 369.867 45.5327 371.25 45.5327H373.315V44.499C373.315 43.8878 373.129 43.402 372.756 43.0448C372.383 42.6877 371.855 42.5091 371.173 42.5091C370.556 42.5091 370.056 42.6633 369.677 42.9727C369.297 43.2811 369.108 43.6526 369.108 44.0841L367.303 44.103L367.284 44.0453C367.239 43.2855 367.594 42.5901 368.35 41.9578C369.105 41.3267 370.083 41.0117 371.279 41.0117C372.462 41.0117 373.415 41.3123 374.136 41.9146C374.857 42.5168 375.217 43.3853 375.217 44.5189V49.5524C375.217 49.9262 375.237 50.2867 375.274 50.6349C375.313 50.9832 375.384 51.3237 375.487 51.6587H373.528Z" fill="#005AAA"/>
<path d="M385.469 46.6249C385.469 45.4392 385.235 44.4653 384.768 43.7022C384.302 42.9391 383.615 42.5575 382.708 42.5575C382.162 42.5575 381.695 42.6807 381.31 42.9291C380.922 43.1765 380.61 43.517 380.372 43.9485V49.0019C380.61 49.4334 380.922 49.7706 381.31 50.0124C381.695 50.2531 382.168 50.374 382.728 50.374C383.628 50.374 384.31 50.0445 384.773 49.3835C385.237 48.7235 385.469 47.8716 385.469 46.8279V46.6249ZM387.37 46.8279C387.37 48.3353 387.009 49.5521 386.288 50.476C385.568 51.4 384.575 51.8625 383.306 51.8625C382.663 51.8625 382.098 51.7538 381.613 51.5386C381.127 51.3234 380.714 50.9995 380.372 50.567V55.6792H378.471V41.2043H379.928L380.228 42.5575C380.568 42.0551 380.993 41.6713 381.502 41.4073C382.01 41.1433 382.601 41.0113 383.277 41.0113C384.57 41.0113 385.576 41.5249 386.294 42.552C387.012 43.5802 387.37 44.9379 387.37 46.6249V46.8279Z" fill="#005AAA"/>
<path d="M394.35 50.3744C394.936 50.3744 395.448 50.1791 395.884 49.7898C396.322 49.3994 396.541 48.9213 396.541 48.3545H398.26L398.287 48.4122C398.313 49.314 397.927 50.1148 397.13 50.8136C396.332 51.5124 395.405 51.8618 394.35 51.8618C392.883 51.8618 391.751 51.3626 390.953 50.3644C390.154 49.3661 389.756 48.1227 389.756 46.6353V46.2282C389.756 44.7541 390.156 43.5152 390.956 42.5136C391.758 41.512 392.89 41.0117 394.35 41.0117C395.514 41.0117 396.469 41.3722 397.212 42.0932C397.954 42.8153 398.313 43.7004 398.287 44.7497L398.267 44.8085H396.541C396.541 44.1707 396.333 43.6283 395.919 43.1802C395.503 42.7332 394.98 42.5091 394.35 42.5091C393.417 42.5091 392.736 42.8707 392.308 43.5961C391.88 44.3204 391.668 45.1978 391.668 46.2282V46.6353C391.668 47.6846 391.877 48.5708 392.299 49.2918C392.72 50.0139 393.404 50.3744 394.35 50.3744Z" fill="#005AAA"/>
<path d="M409.089 42.6824H405.643V51.659H403.742V42.6824H400.344V41.2039H409.089V42.6824Z" fill="#005AAA"/>
<path d="M413.559 47.079V50.1902H416.444C417.147 50.1902 417.677 50.0571 418.038 49.7898C418.399 49.5225 418.578 49.1376 418.578 48.6352C418.578 48.1393 418.399 47.7556 418.038 47.4849C417.677 47.2143 417.147 47.079 416.444 47.079H413.559ZM413.559 45.6204H415.79C416.593 45.6204 417.2 45.5006 417.608 45.2632C418.018 45.0248 418.221 44.6632 418.221 44.1807C418.221 43.6849 418.015 43.3111 417.603 43.0593C417.191 42.8086 416.584 42.6822 415.78 42.6822H413.559V45.6204ZM411.658 51.6588V41.2047H415.78C417.157 41.2047 418.224 41.4443 418.984 41.9246C419.744 42.4038 420.123 43.1236 420.123 44.0842C420.123 44.5733 419.974 45.0103 419.678 45.393C419.382 45.7768 418.965 46.0685 418.424 46.267C419.073 46.429 419.58 46.7296 419.943 47.171C420.308 47.6125 420.489 48.1172 420.489 48.684C420.489 49.6623 420.134 50.4032 419.423 50.9057C418.712 51.4081 417.718 51.6588 416.444 51.6588H411.658Z" fill="#005AAA"/>
<path d="M427.401 42.5086C426.738 42.5086 426.189 42.7648 425.755 43.2772C425.321 43.7886 425.056 44.4441 424.958 45.2438L424.978 45.2915H429.688V45.1373C429.688 44.3776 429.502 43.7487 429.129 43.2528C428.755 42.7559 428.18 42.5086 427.401 42.5086ZM427.701 51.8623C426.2 51.8623 425.033 51.382 424.193 50.4226C423.353 49.462 422.932 48.1998 422.932 46.6347V46.2099C422.932 44.7081 423.365 43.4669 424.231 42.4842C425.096 41.5026 426.154 41.0112 427.401 41.0112C428.797 41.0112 429.845 41.446 430.543 42.3156C431.241 43.1852 431.589 44.3421 431.589 45.784V46.7889H424.912L424.882 46.8377C424.882 47.887 425.115 48.7389 425.578 49.3933C426.04 50.0477 426.748 50.3738 427.701 50.3738C428.343 50.3738 428.908 50.2817 429.394 50.0987C429.88 49.9157 430.296 49.6628 430.644 49.34L431.388 50.5768C431.014 50.9384 430.522 51.2423 429.911 51.4907C429.299 51.7381 428.562 51.8623 427.701 51.8623Z" fill="#005AAA"/>
<path d="M442.672 51.6592H440.771V47.2147H436.119V51.6592H434.217V41.204H436.119V45.7262H440.771V41.204H442.672V51.6592Z" fill="#005AAA"/>
<path d="M454.4 51.6592H452.499V47.2147H447.847V51.6592H445.946V41.204H447.847V45.7262H452.499V41.204H454.4V51.6592Z" fill="#005AAA"/>
<path d="M470.116 51.6595H468.215V41.2043H470.116V51.6595ZM459.866 46.6737V50.1709H462.463C463.144 50.1709 463.648 50.0068 463.973 49.6785C464.297 49.3501 464.459 48.9409 464.459 48.4506C464.459 47.9748 464.296 47.5588 463.968 47.205C463.639 46.8501 463.138 46.6737 462.463 46.6737H459.866ZM459.866 45.1851H462.463C463.698 45.1851 464.658 45.4813 465.343 46.0747C466.028 46.667 466.37 47.4368 466.37 48.3841C466.37 49.3368 466.025 50.121 465.332 50.7366C464.641 51.3511 463.684 51.6595 462.463 51.6595H457.965V41.2043H459.866V45.1851Z" fill="#005AAA"/>
<path d="M480.84 36.9043L480.86 36.962C480.886 37.7096 480.637 38.3185 480.116 38.7888C479.595 39.2591 478.894 39.4942 478.012 39.4942C477.125 39.4942 476.42 39.2591 475.898 38.7888C475.378 38.3185 475.133 37.7096 475.165 36.962L475.185 36.9043H476.642C476.642 37.3302 476.751 37.6741 476.97 37.9381C477.189 38.202 477.536 38.334 478.012 38.334C478.475 38.334 478.82 38.2009 479.046 37.9336C479.271 37.6663 479.383 37.3225 479.383 36.9043H480.84ZM480.338 41.2046H482.239V51.6587H480.338V44.2382L480.28 44.2194L475.667 51.6587H473.775V41.2046H475.667V48.6251L475.724 48.645L480.338 41.2046Z" fill="#005AAA"/>
<path d="M494.106 47.7846L494.442 49.099H494.501L497.068 41.205H499.182L494.791 53.2629C494.527 53.9661 494.149 54.5773 493.657 55.0997C493.165 55.621 492.499 55.8817 491.663 55.8817C491.509 55.8817 491.313 55.8639 491.074 55.8284C490.837 55.793 490.653 55.7597 490.525 55.7275L490.718 54.2301C490.679 54.2223 490.793 54.2301 491.06 54.249C491.327 54.2678 491.496 54.2778 491.567 54.2778C491.973 54.2778 492.304 54.0981 492.561 53.7365C492.818 53.376 493.034 52.9767 493.207 52.5386L493.661 51.4472L489.781 41.205H491.904L494.106 47.7846Z" fill="#005AAA"/>
<path d="M509.8 51.6592H507.899V47.2147H503.247V51.6592H501.346V41.204H503.247V45.7262H507.899V41.204H509.8V51.6592Z" fill="#005AAA"/>
<path d="M519.637 41.2044H521.538V51.6597H519.637V44.2381L519.578 44.2192L514.966 51.6597H513.074V41.2044H514.966V48.626L515.024 48.6449L519.637 41.2044Z" fill="#005AAA"/>
<path d="M526.713 47.079V50.1902H529.598C530.3 50.1902 530.831 50.0571 531.191 49.7898C531.552 49.5225 531.732 49.1376 531.732 48.6352C531.732 48.1393 531.552 47.7556 531.191 47.4849C530.831 47.2143 530.3 47.079 529.598 47.079H526.713ZM526.713 45.6204H528.943C529.746 45.6204 530.353 45.5006 530.761 45.2632C531.171 45.0248 531.375 44.6632 531.375 44.1807C531.375 43.6849 531.169 43.3111 530.757 43.0593C530.345 42.8086 529.737 42.6822 528.933 42.6822H526.713V45.6204ZM524.812 51.6588V41.2047H528.933C530.31 41.2047 531.377 41.4443 532.137 41.9246C532.897 42.4038 533.276 43.1236 533.276 44.0842C533.276 44.5733 533.128 45.0103 532.832 45.393C532.536 45.7768 532.118 46.0685 531.578 46.267C532.227 46.429 532.733 46.7296 533.097 47.171C533.461 47.6125 533.643 48.1172 533.643 48.684C533.643 49.6623 533.287 50.4032 532.577 50.9057C531.866 51.4081 530.872 51.6588 529.598 51.6588H524.812Z" fill="#005AAA"/>
<path d="M540.556 42.5086C539.893 42.5086 539.344 42.7648 538.91 43.2772C538.476 43.7886 538.211 44.4441 538.113 45.2438L538.133 45.2915H542.843V45.1373C542.843 44.3776 542.657 43.7487 542.283 43.2528C541.91 42.7559 541.335 42.5086 540.556 42.5086ZM540.855 51.8623C539.355 51.8623 538.187 51.382 537.348 50.4226C536.508 49.462 536.087 48.1998 536.087 46.6347V46.2099C536.087 44.7081 536.52 43.4669 537.385 42.4842C538.251 41.5026 539.309 41.0112 540.556 41.0112C541.952 41.0112 543 41.446 543.698 42.3156C544.396 43.1852 544.744 44.3421 544.744 45.784V46.7889H538.067L538.037 46.8377C538.037 47.887 538.269 48.7389 538.733 49.3933C539.195 50.0477 539.903 50.3738 540.855 50.3738C541.498 50.3738 542.063 50.2817 542.549 50.0987C543.035 49.9157 543.451 49.6628 543.799 49.34L544.542 50.5768C544.169 50.9384 543.677 51.2423 543.066 51.4907C542.454 51.7381 541.717 51.8623 540.855 51.8623Z" fill="#005AAA"/>
<path d="M554.368 46.6249C554.368 45.4392 554.135 44.4653 553.669 43.7022C553.203 42.9391 552.516 42.5575 551.608 42.5575C551.061 42.5575 550.595 42.6807 550.209 42.9291C549.824 43.1765 549.511 43.517 549.272 43.9485V49.0019C549.511 49.4334 549.824 49.7706 550.209 50.0124C550.595 50.2531 551.068 50.374 551.627 50.374C552.528 50.374 553.209 50.0445 553.674 49.3835C554.137 48.7235 554.368 47.8716 554.368 46.8279V46.6249ZM556.269 46.8279C556.269 48.3353 555.909 49.5521 555.188 50.476C554.468 51.4 553.474 51.8625 552.207 51.8625C551.563 51.8625 550.999 51.7538 550.513 51.5386C550.027 51.3234 549.613 50.9995 549.272 50.567V55.6792H547.371V41.2043H548.829L549.128 42.5575C549.468 42.0551 549.892 41.6713 550.402 41.4073C550.909 41.1433 551.501 41.0113 552.177 41.0113C553.471 41.0113 554.477 41.5249 555.194 42.552C555.911 43.5802 556.269 44.9379 556.269 46.6249V46.8279Z" fill="#005AAA"/>
<path d="M563.251 50.3744C563.836 50.3744 564.347 50.1791 564.785 49.7898C565.223 49.3994 565.442 48.9213 565.442 48.3545H567.158L567.188 48.4122C567.214 49.314 566.828 50.1148 566.031 50.8136C565.233 51.5124 564.306 51.8618 563.251 51.8618C561.784 51.8618 560.651 51.3626 559.853 50.3644C559.055 49.3661 558.656 48.1227 558.656 46.6353V46.2282C558.656 44.7541 559.056 43.5152 559.857 42.5136C560.659 41.512 561.791 41.0117 563.251 41.0117C564.415 41.0117 565.368 41.3722 566.113 42.0932C566.855 42.8153 567.214 43.7004 567.188 44.7497L567.168 44.8085H565.442C565.442 44.1707 565.234 43.6283 564.819 43.1802C564.404 42.7332 563.881 42.5091 563.251 42.5091C562.318 42.5091 561.637 42.8707 561.209 43.5961C560.781 44.3204 560.567 45.1978 560.567 46.2282V46.6353C560.567 47.6846 560.778 48.5708 561.199 49.2918C561.621 50.0139 562.305 50.3744 563.251 50.3744Z" fill="#005AAA"/>
<path d="M576.504 41.2044H578.405V51.6597H576.504V44.2381L576.445 44.2192L571.833 51.6597H569.941V41.2044H571.833V48.626L571.891 48.6449L576.504 41.2044Z" fill="#005AAA"/>
<path d="M589.719 42.6824H586.273V51.659H584.371V42.6824H580.975V41.2039H589.719V42.6824Z" fill="#005AAA"/>
<path d="M596.129 42.5086C595.466 42.5086 594.917 42.7648 594.483 43.2772C594.049 43.7886 593.784 44.4441 593.687 45.2438L593.706 45.2915H598.416V45.1373C598.416 44.3776 598.23 43.7487 597.857 43.2528C597.483 42.7559 596.908 42.5086 596.129 42.5086ZM596.429 51.8623C594.928 51.8623 593.761 51.382 592.921 50.4226C592.081 49.462 591.66 48.1998 591.66 46.6347V46.2099C591.66 44.7081 592.093 43.4669 592.959 42.4842C593.824 41.5026 594.882 41.0112 596.129 41.0112C597.525 41.0112 598.573 41.446 599.271 42.3156C599.969 43.1852 600.317 44.3421 600.317 45.784V46.7889H593.64L593.61 46.8377C593.61 47.887 593.843 48.7389 594.306 49.3933C594.768 50.0477 595.476 50.3738 596.429 50.3738C597.071 50.3738 597.636 50.2817 598.123 50.0987C598.608 49.9157 599.024 49.6628 599.372 49.34L600.116 50.5768C599.742 50.9384 599.25 51.2423 598.639 51.4907C598.027 51.7381 597.291 51.8623 596.429 51.8623Z" fill="#005AAA"/>
<path d="M610.888 42.6824H607.442V51.659H605.54V42.6824H602.144V41.2039H610.888V42.6824Z" fill="#005AAA"/>
<path d="M315.378 74.9757C316.067 74.9757 316.687 74.7993 317.24 74.4444C317.794 74.0905 318.154 73.6835 318.321 73.2265V71.5261H316.189C315.422 71.5261 314.809 71.7191 314.35 72.1062C313.89 72.4922 313.66 72.947 313.66 73.4683C313.66 73.9319 313.804 74.2991 314.095 74.5697C314.384 74.8403 314.812 74.9757 315.378 74.9757ZM318.534 76.3666C318.47 76.0516 318.42 75.7732 318.385 75.5314C318.349 75.2896 318.328 75.0466 318.321 74.8015C317.968 75.304 317.506 75.7244 316.937 76.0627C316.367 76.401 315.754 76.5696 315.097 76.5696C314.011 76.5696 313.182 76.2923 312.612 75.7343C312.043 75.1764 311.758 74.4089 311.758 73.4295C311.758 72.4312 312.163 71.6503 312.97 71.0869C313.777 70.5234 314.873 70.2405 316.256 70.2405H318.321V69.2068C318.321 68.5956 318.135 68.1098 317.762 67.7526C317.389 67.3955 316.861 67.2169 316.179 67.2169C315.562 67.2169 315.062 67.3711 314.683 67.6805C314.303 67.9889 314.114 68.3605 314.114 68.7919L312.309 68.8108L312.29 68.7531C312.245 67.9933 312.6 67.2979 313.356 66.6656C314.111 66.0345 315.089 65.7195 316.285 65.7195C317.468 65.7195 318.421 66.0201 319.142 66.6224C319.863 67.2247 320.223 68.0932 320.223 69.2267V74.2602C320.223 74.634 320.243 74.9945 320.28 75.3428C320.319 75.6911 320.39 76.0316 320.493 76.3666H318.534Z" fill="#005AAA"/>
<path d="M327.116 67.2163C326.524 67.2163 325.998 67.4126 325.538 67.8064C325.077 68.199 324.848 68.676 324.848 69.2361H323.129L323.111 69.1784C323.072 68.2822 323.463 67.4825 324.283 66.7771C325.104 66.0716 326.048 65.7189 327.116 65.7189C328.532 65.7189 329.649 66.2225 330.469 67.2307C331.29 68.239 331.7 69.4746 331.7 70.9365V71.3424C331.7 72.811 331.288 74.0488 330.465 75.0582C329.642 76.0664 328.525 76.57 327.116 76.57C325.939 76.57 324.967 76.2106 324.201 75.4919C323.435 74.7743 323.069 73.8902 323.101 72.8398L323.12 72.7822H324.848C324.848 73.4199 325.065 73.9623 325.499 74.4104C325.934 74.8574 326.472 75.0815 327.116 75.0815C327.927 75.0815 328.554 74.7665 328.998 74.1343C329.442 73.5042 329.689 72.7367 329.741 71.8349L329.713 71.7861H325.997V70.2987H329.693L329.713 70.251C329.647 69.4069 329.395 68.6904 328.955 68.1003C328.514 67.5113 327.901 67.2163 327.116 67.2163Z" fill="#005AAA"/>
<path d="M341.605 71.3328C341.605 70.1471 341.371 69.1732 340.904 68.4101C340.438 67.647 339.751 67.2654 338.845 67.2654C338.298 67.2654 337.831 67.3885 337.446 67.637C337.059 67.8843 336.747 68.2248 336.509 68.6563V73.7098C336.747 74.1412 337.059 74.4784 337.446 74.7202C337.831 74.9609 338.304 75.0818 338.864 75.0818C339.764 75.0818 340.447 74.7524 340.91 74.0913C341.373 73.4314 341.605 72.5795 341.605 71.5358V71.3328ZM343.506 71.5358C343.506 73.0431 343.146 74.2599 342.426 75.1839C341.704 76.1078 340.711 76.5703 339.443 76.5703C338.799 76.5703 338.234 76.4616 337.749 76.2465C337.263 76.0313 336.85 75.7074 336.509 75.2748V80.387H334.608V65.9122H336.065L336.364 67.2654C336.704 66.7629 337.13 66.3792 337.638 66.1152C338.147 65.8512 338.739 65.7192 339.414 65.7192C340.707 65.7192 341.712 66.2328 342.43 67.2599C343.148 68.2881 343.506 69.6457 343.506 71.3328V71.5358Z" fill="#005AAA"/>
<path d="M347.794 71.2554C347.794 72.3635 348.027 73.2786 348.494 73.9996C348.96 74.7217 349.653 75.0821 350.573 75.0821C351.481 75.0821 352.169 74.7217 352.638 73.9996C353.108 73.2786 353.343 72.3635 353.343 71.2554V71.0436C353.343 69.9477 353.107 69.036 352.634 68.3083C352.161 67.5807 351.467 67.2169 350.553 67.2169C349.647 67.2169 348.96 67.5807 348.494 68.3083C348.027 69.036 347.794 69.9477 347.794 71.0436V71.2554ZM345.892 71.0436C345.892 69.4974 346.31 68.2229 347.148 67.2213C347.983 66.2197 349.12 65.7195 350.553 65.7195C352.001 65.7195 353.146 66.2175 353.984 67.2169C354.824 68.2152 355.244 69.4907 355.244 71.0436V71.2554C355.244 72.8139 354.826 74.0894 353.99 75.0821C353.154 76.0737 352.015 76.5696 350.573 76.5696C349.132 76.5696 347.992 76.0726 347.152 75.0766C346.312 74.0817 345.892 72.8083 345.892 71.2554V71.0436Z" fill="#005AAA"/>
<path d="M361.037 71.9319H360.062V76.3675H358.161V65.9123H360.062V70.328H360.873L364.608 65.9123H366.838L366.857 65.96L362.523 70.9269L367.185 76.3187L367.166 76.3675H364.83L361.037 71.9319Z" fill="#005AAA"/>
<path d="M370.623 71.2554C370.623 72.3635 370.857 73.2786 371.323 73.9996C371.79 74.7217 372.482 75.0821 373.403 75.0821C374.309 75.0821 374.998 74.7217 375.468 73.9996C375.938 73.2786 376.173 72.3635 376.173 71.2554V71.0436C376.173 69.9477 375.937 69.036 375.462 68.3083C374.989 67.5807 374.297 67.2169 373.383 67.2169C372.477 67.2169 371.79 67.5807 371.323 68.3083C370.857 69.036 370.623 69.9477 370.623 71.0436V71.2554ZM368.722 71.0436C368.722 69.4974 369.14 68.2229 369.977 67.2213C370.813 66.2197 371.949 65.7195 373.383 65.7195C374.831 65.7195 375.975 66.2175 376.814 67.2169C377.654 68.2152 378.074 69.4907 378.074 71.0436V71.2554C378.074 72.8139 377.656 74.0894 376.819 75.0821C375.983 76.0737 374.844 76.5696 373.403 76.5696C371.962 76.5696 370.822 76.0726 369.982 75.0766C369.142 74.0817 368.722 72.8083 368.722 71.2554V71.0436Z" fill="#005AAA"/>
<path d="M385.044 75.0821C385.629 75.0821 386.14 74.8869 386.579 74.4976C387.016 74.1072 387.235 73.6291 387.235 73.0623H388.952L388.981 73.12C389.007 74.0218 388.622 74.8226 387.824 75.5214C387.025 76.2202 386.099 76.5696 385.044 76.5696C383.576 76.5696 382.444 76.0704 381.646 75.0722C380.849 74.0739 380.45 72.8305 380.45 71.3431V70.936C380.45 69.4619 380.85 68.2229 381.651 67.2213C382.453 66.2197 383.584 65.7195 385.044 65.7195C386.208 65.7195 387.162 66.08 387.905 66.801C388.648 67.523 389.007 68.4082 388.981 69.4575L388.962 69.5162H387.235C387.235 68.8785 387.027 68.3361 386.612 67.888C386.197 67.441 385.674 67.2169 385.044 67.2169C384.111 67.2169 383.43 67.5785 383.002 68.3039C382.575 69.0282 382.361 69.9056 382.361 70.936V71.3431C382.361 72.3924 382.57 73.2786 382.992 73.9996C383.415 74.7217 384.097 75.0821 385.044 75.0821Z" fill="#005AAA"/>
<path d="M397.679 73.8739H397.738L401.155 65.9121H403.528V76.3673H401.627V69.1099L401.569 69.0911L398.365 76.3673H397.052L393.79 68.9269L393.733 68.9458V76.3673H391.832V65.9121H394.283L397.679 73.8739Z" fill="#005AAA"/>
<path d="M413.538 65.9121H415.439V76.3673H413.538V68.9458L413.48 68.9269L408.867 76.3673H406.976V65.9121H408.867V73.3337L408.925 73.3526L413.538 65.9121Z" fill="#005AAA"/>
<path d="M426.86 76.367H424.959V72.628C424.592 72.7245 424.217 72.7966 423.829 72.8454C423.443 72.8931 423.031 72.9175 422.594 72.9175C421.333 72.9175 420.345 72.5858 419.627 71.9225C418.909 71.2581 418.55 70.2765 418.55 68.9754V65.9019H420.451V68.9754C420.451 69.8129 420.632 70.4273 420.993 70.8211C421.352 71.2138 421.886 71.4101 422.594 71.4101C423.019 71.4101 423.423 71.3868 423.81 71.338C424.197 71.2892 424.579 71.2171 424.959 71.1206V65.9119H426.86V76.367Z" fill="#005AAA"/>
<path d="M434.139 67.2163C433.475 67.2163 432.927 67.4725 432.493 67.9849C432.058 68.4963 431.793 69.1518 431.696 69.9515L431.716 69.9992H436.426V69.845C436.426 69.0853 436.239 68.4564 435.866 67.9605C435.493 67.4636 434.918 67.2163 434.139 67.2163ZM434.438 76.57C432.938 76.57 431.77 76.0897 430.93 75.1303C430.091 74.1697 429.67 72.9075 429.67 71.3424V70.9176C429.67 69.4158 430.103 68.1746 430.968 67.1919C431.833 66.2103 432.891 65.7189 434.139 65.7189C435.535 65.7189 436.583 66.1537 437.281 67.0233C437.979 67.8929 438.327 69.0498 438.327 70.4917V71.4966H431.649L431.62 71.5454C431.62 72.5947 431.852 73.4466 432.315 74.101C432.777 74.7554 433.485 75.0815 434.438 75.0815C435.081 75.0815 435.646 74.9894 436.132 74.8064C436.617 74.6234 437.034 74.3705 437.382 74.0477L438.125 75.2845C437.752 75.6461 437.26 75.95 436.648 76.1984C436.037 76.4458 435.3 76.57 434.438 76.57Z" fill="#005AAA"/>
<path d="M445.105 75.0821C445.69 75.0821 446.201 74.8869 446.64 74.4976C447.078 74.1072 447.297 73.6291 447.297 73.0623H449.013L449.043 73.12C449.068 74.0218 448.683 74.8226 447.885 75.5214C447.087 76.2202 446.16 76.5696 445.105 76.5696C443.639 76.5696 442.505 76.0704 441.707 75.0722C440.91 74.0739 440.511 72.8305 440.511 71.3431V70.936C440.511 69.4619 440.911 68.2229 441.712 67.2213C442.514 66.2197 443.645 65.7195 445.105 65.7195C446.27 65.7195 447.223 66.08 447.967 66.801C448.709 67.523 449.068 68.4082 449.043 69.4575L449.023 69.5162H447.297C447.297 68.8785 447.089 68.3361 446.673 67.888C446.259 67.441 445.736 67.2169 445.105 67.2169C444.173 67.2169 443.491 67.5785 443.064 68.3039C442.636 69.0282 442.422 69.9056 442.422 70.936V71.3431C442.422 72.3924 442.634 73.2786 443.054 73.9996C443.476 74.7217 444.159 75.0821 445.105 75.0821Z" fill="#005AAA"/>
<path d="M454.767 71.9319H453.793V76.3675H451.892V65.9123H453.793V70.328H454.604L458.339 65.9123H460.568L460.588 65.96L456.254 70.9269L460.916 76.3187L460.896 76.3675H458.56L454.767 71.9319Z" fill="#005AAA"/>
<path d="M464.354 71.2554C464.354 72.3635 464.586 73.2786 465.053 73.9996C465.519 74.7217 466.213 75.0821 467.133 75.0821C468.041 75.0821 468.729 74.7217 469.198 73.9996C469.668 73.2786 469.903 72.3635 469.903 71.2554V71.0436C469.903 69.9477 469.666 69.036 469.194 68.3083C468.721 67.5807 468.026 67.2169 467.113 67.2169C466.206 67.2169 465.519 67.5807 465.053 68.3083C464.586 69.036 464.354 69.9477 464.354 71.0436V71.2554ZM462.451 71.0436C462.451 69.4974 462.87 68.2229 463.707 67.2213C464.543 66.2197 465.679 65.7195 467.113 65.7195C468.561 65.7195 469.705 66.2175 470.545 67.2169C471.384 68.2152 471.804 69.4907 471.804 71.0436V71.2554C471.804 72.8139 471.385 74.0894 470.55 75.0821C469.713 76.0737 468.574 76.5696 467.133 76.5696C465.691 76.5696 464.552 76.0726 463.711 75.0766C462.871 74.0817 462.451 72.8083 462.451 71.2554V71.0436Z" fill="#005AAA"/>
<path d="M481.265 67.4194H476.526V76.3672H474.624V65.9121H481.265V67.4194Z" fill="#005AAA"/>
<path d="M484.577 71.2554C484.577 72.3635 484.81 73.2786 485.276 73.9996C485.743 74.7217 486.436 75.0821 487.357 75.0821C488.264 75.0821 488.952 74.7217 489.422 73.9996C489.892 73.2786 490.127 72.3635 490.127 71.2554V71.0436C490.127 69.9477 489.89 69.036 489.418 68.3083C488.945 67.5807 488.25 67.2169 487.337 67.2169C486.43 67.2169 485.743 67.5807 485.276 68.3083C484.81 69.036 484.577 69.9477 484.577 71.0436V71.2554ZM482.675 71.0436C482.675 69.4974 483.094 68.2229 483.93 67.2213C484.767 66.2197 485.902 65.7195 487.337 65.7195C488.785 65.7195 489.928 66.2175 490.768 67.2169C491.608 68.2152 492.028 69.4907 492.028 71.0436V71.2554C492.028 72.8139 491.609 74.0894 490.774 75.0821C489.936 76.0737 488.797 76.5696 487.357 76.5696C485.914 76.5696 484.776 76.0726 483.936 75.0766C483.095 74.0817 482.675 72.8083 482.675 71.2554V71.0436Z" fill="#005AAA"/>
<path d="M508.719 76.367H506.818V67.4192H502.156V76.367H500.254V65.9118H508.719V76.367Z" fill="#005AAA"/>
<path d="M518.981 71.3328C518.981 70.1471 518.749 69.1732 518.282 68.4101C517.816 67.647 517.129 67.2654 516.221 67.2654C515.674 67.2654 515.208 67.3885 514.822 67.637C514.437 67.8843 514.124 68.2248 513.885 68.6563V73.7098C514.124 74.1412 514.437 74.4784 514.822 74.7202C515.208 74.9609 515.681 75.0818 516.24 75.0818C517.141 75.0818 517.822 74.7524 518.287 74.0913C518.75 73.4314 518.981 72.5795 518.981 71.5358V71.3328ZM520.882 71.5358C520.882 73.0431 520.522 74.2599 519.801 75.1839C519.081 76.1078 518.087 76.5703 516.82 76.5703C516.176 76.5703 515.612 76.4616 515.126 76.2465C514.641 76.0313 514.226 75.7074 513.885 75.2748V80.387H511.984V65.9122H513.442L513.741 67.2654C514.081 66.7629 514.505 66.3792 515.015 66.1152C515.522 65.8512 516.115 65.7192 516.79 65.7192C518.084 65.7192 519.09 66.2328 519.807 67.2599C520.525 68.2881 520.882 69.6457 520.882 71.3328V71.5358Z" fill="#005AAA"/>
<path d="M530.275 65.9121H532.176V76.3673H530.275V68.9458L530.216 68.9269L525.604 76.3673H523.712V65.9121H525.604V73.3337L525.662 73.3526L530.275 65.9121Z" fill="#005AAA"/>
<path d="M539.658 67.2163C538.751 67.2163 538.066 67.5801 537.603 68.3077C537.139 69.0364 536.907 69.9482 536.907 71.0429V71.2548C536.907 72.3629 537.139 73.278 537.603 74C538.066 74.721 538.757 75.0815 539.678 75.0815C540.585 75.0815 541.273 74.721 541.743 74C542.213 73.278 542.448 72.3629 542.448 71.2548V71.0429C542.448 69.9482 542.212 69.0364 541.739 68.3077C541.265 67.5801 540.571 67.2163 539.658 67.2163ZM540.035 65.7189C541.366 65.7189 542.419 66.218 543.19 67.2163C543.963 68.2145 544.349 69.4901 544.349 71.0429V71.2548C544.349 72.8143 543.931 74.0899 543.095 75.0815C542.257 76.0731 541.118 76.57 539.678 76.57C538.235 76.57 537.096 76.072 536.257 75.0771C535.417 74.0821 534.996 72.8077 534.996 71.2548V70.9121C534.996 70.8777 534.999 70.8366 535.006 70.7912V68.5207C535.006 66.5363 535.402 65.0766 536.198 64.1394C536.992 63.201 538.162 62.6919 539.707 62.6076C540.595 62.5621 541.279 62.4512 541.762 62.2737C542.245 62.0963 542.486 61.7923 542.486 61.3609H543.943L543.963 61.4185C543.995 62.4368 543.656 63.15 542.948 63.5593C542.24 63.9686 541.216 64.186 539.871 64.2115C538.892 64.237 538.108 64.5076 537.515 65.0234C536.924 65.5381 536.637 66.3023 536.657 67.3128L536.685 67.3616C537.065 66.878 537.551 66.4842 538.142 66.177C538.735 65.8719 539.365 65.7189 540.035 65.7189Z" fill="#005AAA"/>
<path d="M548.328 71.2554C548.328 72.3635 548.56 73.2786 549.027 73.9996C549.493 74.7217 550.187 75.0821 551.107 75.0821C552.015 75.0821 552.703 74.7217 553.172 73.9996C553.642 73.2786 553.877 72.3635 553.877 71.2554V71.0436C553.877 69.9477 553.64 69.036 553.168 68.3083C552.695 67.5807 552 67.2169 551.087 67.2169C550.18 67.2169 549.493 67.5807 549.027 68.3083C548.56 69.036 548.328 69.9477 548.328 71.0436V71.2554ZM546.425 71.0436C546.425 69.4974 546.844 68.2229 547.681 67.2213C548.517 66.2197 549.653 65.7195 551.087 65.7195C552.535 65.7195 553.679 66.2175 554.518 67.2169C555.358 68.2152 555.778 69.4907 555.778 71.0436V71.2554C555.778 72.8139 555.359 74.0894 554.524 75.0821C553.686 76.0737 552.548 76.5696 551.107 76.5696C549.665 76.5696 548.526 76.0726 547.686 75.0766C546.845 74.0817 546.425 72.8083 546.425 71.2554V71.0436Z" fill="#005AAA"/>
<path d="M565.595 71.3328C565.595 70.1471 565.362 69.1732 564.896 68.4101C564.429 67.647 563.743 67.2654 562.835 67.2654C562.288 67.2654 561.821 67.3885 561.436 67.637C561.05 67.8843 560.738 68.2248 560.499 68.6563V73.7098C560.738 74.1412 561.05 74.4784 561.436 74.7202C561.821 74.9609 562.295 75.0818 562.854 75.0818C563.755 75.0818 564.436 74.7524 564.9 74.0913C565.363 73.4314 565.595 72.5795 565.595 71.5358V71.3328ZM567.496 71.5358C567.496 73.0431 567.136 74.2599 566.415 75.1839C565.695 76.1078 564.701 76.5703 563.433 76.5703C562.79 76.5703 562.226 76.4616 561.739 76.2465C561.254 76.0313 560.84 75.7074 560.499 75.2748V80.387H558.597V65.9122H560.055L560.355 67.2654C560.695 66.7629 561.119 66.3792 561.629 66.1152C562.136 65.8512 562.729 65.7192 563.404 65.7192C564.698 65.7192 565.703 66.2328 566.42 67.2599C567.138 68.2881 567.496 69.6457 567.496 71.3328V71.5358Z" fill="#005AAA"/>
<path d="M571.785 71.2554C571.785 72.3635 572.017 73.2786 572.484 73.9996C572.95 74.7217 573.644 75.0821 574.565 75.0821C575.472 75.0821 576.16 74.7217 576.63 73.9996C577.099 73.2786 577.334 72.3635 577.334 71.2554V71.0436C577.334 69.9477 577.097 69.036 576.625 68.3083C576.152 67.5807 575.458 67.2169 574.545 67.2169C573.637 67.2169 572.95 67.5807 572.484 68.3083C572.017 69.036 571.785 69.9477 571.785 71.0436V71.2554ZM569.883 71.0436C569.883 69.4974 570.301 68.2229 571.138 67.2213C571.974 66.2197 573.11 65.7195 574.545 65.7195C575.993 65.7195 577.136 66.2175 577.976 67.2169C578.816 68.2152 579.235 69.4907 579.235 71.0436V71.2554C579.235 72.8139 578.817 74.0894 577.981 75.0821C577.144 76.0737 576.005 76.5696 574.565 76.5696C573.122 76.5696 571.983 76.0726 571.143 75.0766C570.302 74.0817 569.883 72.8083 569.883 71.2554V71.0436Z" fill="#005AAA"/>
<path d="M586.205 75.0821C586.79 75.0821 587.301 74.8869 587.74 74.4976C588.177 74.1072 588.397 73.6291 588.397 73.0623H590.114L590.143 73.12C590.168 74.0218 589.783 74.8226 588.985 75.5214C588.187 76.2202 587.26 76.5696 586.205 76.5696C584.739 76.5696 583.605 76.0704 582.807 75.0722C582.01 74.0739 581.611 72.8305 581.611 71.3431V70.936C581.611 69.4619 582.011 68.2229 582.812 67.2213C583.614 66.2197 584.745 65.7195 586.205 65.7195C587.37 65.7195 588.323 66.08 589.067 66.801C589.809 67.523 590.168 68.4082 590.143 69.4575L590.123 69.5162H588.397C588.397 68.8785 588.189 68.3361 587.773 67.888C587.359 67.441 586.836 67.2169 586.205 67.2169C585.273 67.2169 584.591 67.5785 584.164 68.3039C583.736 69.0282 583.522 69.9056 583.522 70.936V71.3431C583.522 72.3924 583.733 73.2786 584.154 73.9996C584.576 74.7217 585.259 75.0821 586.205 75.0821Z" fill="#005AAA"/>
<path d="M600.946 67.3902H597.499V76.3668H595.598V67.3902H592.201V65.9116H600.946V67.3902Z" fill="#005AAA"/>
<path d="M610.502 71.3328C610.502 70.1471 610.269 69.1732 609.802 68.4101C609.336 67.647 608.649 67.2654 607.742 67.2654C607.194 67.2654 606.728 67.3885 606.342 67.637C605.957 67.8843 605.644 68.2248 605.405 68.6563V73.7098C605.644 74.1412 605.957 74.4784 606.342 74.7202C606.728 74.9609 607.201 75.0818 607.761 75.0818C608.661 75.0818 609.343 74.7524 609.807 74.0913C610.27 73.4314 610.502 72.5795 610.502 71.5358V71.3328ZM612.403 71.5358C612.403 73.0431 612.043 74.2599 611.321 75.1839C610.601 76.1078 609.607 76.5703 608.34 76.5703C607.696 76.5703 607.132 76.4616 606.646 76.2465C606.161 76.0313 605.746 75.7074 605.405 75.2748V80.387H603.504V65.9122H604.962L605.261 67.2654C605.601 66.7629 606.026 66.3792 606.535 66.1152C607.043 65.8512 607.634 65.7192 608.31 65.7192C609.604 65.7192 610.61 66.2328 611.327 67.2599C612.045 68.2881 612.403 69.6457 612.403 71.3328V71.5358Z" fill="#005AAA"/>
<path d="M616.692 71.2554C616.692 72.3635 616.924 73.2786 617.391 73.9996C617.857 74.7217 618.551 75.0821 619.471 75.0821C620.379 75.0821 621.067 74.7217 621.536 73.9996C622.006 73.2786 622.241 72.3635 622.241 71.2554V71.0436C622.241 69.9477 622.004 69.036 621.532 68.3083C621.059 67.5807 620.364 67.2169 619.451 67.2169C618.544 67.2169 617.857 67.5807 617.391 68.3083C616.924 69.036 616.692 69.9477 616.692 71.0436V71.2554ZM614.789 71.0436C614.789 69.4974 615.208 68.2229 616.045 67.2213C616.881 66.2197 618.017 65.7195 619.451 65.7195C620.899 65.7195 622.043 66.2175 622.882 67.2169C623.722 68.2152 624.142 69.4907 624.142 71.0436V71.2554C624.142 72.8139 623.723 74.0894 622.888 75.0821C622.05 76.0737 620.912 76.5696 619.471 76.5696C618.029 76.5696 616.89 76.0726 616.05 75.0766C615.209 74.0817 614.789 72.8083 614.789 71.2554V71.0436Z" fill="#005AAA"/>
<path d="M630.986 67.2163C630.323 67.2163 629.774 67.4725 629.34 67.9849C628.906 68.4963 628.641 69.1518 628.543 69.9515L628.563 69.9992H633.273V69.845C633.273 69.0853 633.087 68.4564 632.714 67.9605C632.34 67.4636 631.765 67.2163 630.986 67.2163ZM631.286 76.57C629.785 76.57 628.618 76.0897 627.778 75.1303C626.938 74.1697 626.517 72.9075 626.517 71.3424V70.9176C626.517 69.4158 626.95 68.1746 627.816 67.1919C628.681 66.2103 629.739 65.7189 630.986 65.7189C632.382 65.7189 633.43 66.1537 634.128 67.0233C634.826 67.8929 635.174 69.0498 635.174 70.4917V71.4966H628.497L628.467 71.5454C628.467 72.5947 628.7 73.4466 629.163 74.101C629.625 74.7554 630.333 75.0815 631.286 75.0815C631.928 75.0815 632.493 74.9894 632.98 74.8064C633.465 74.6234 633.881 74.3705 634.229 74.0477L634.973 75.2845C634.599 75.6461 634.107 75.95 633.496 76.1984C632.884 76.4458 632.147 76.57 631.286 76.57Z" fill="#005AAA"/>
<path d="M646.257 76.367H644.356V71.9225H639.704V76.367H637.802V65.9118H639.704V70.434H644.356V65.9118H646.257V76.367Z" fill="#005AAA"/>
<path d="M656.094 65.9121H657.995V76.3673H656.094V68.9458L656.035 68.9269L651.423 76.3673H649.53V65.9121H651.423V73.3337L651.48 73.3526L656.094 65.9121Z" fill="#005AAA"/>
<path d="M663.121 69.1297C663.121 69.5933 663.279 69.9893 663.594 70.3176C663.91 70.647 664.383 70.8112 665.013 70.8112H667.724V67.3905H665.216C664.527 67.3905 664.006 67.5624 663.653 67.9074C663.299 68.2523 663.121 68.6594 663.121 69.1297ZM669.626 65.9119V76.3671H667.724V72.3086H665.147L662.678 76.3671H660.631L663.275 72.028C662.613 71.7906 662.103 71.4135 661.746 70.8977C661.389 70.3831 661.21 69.7863 661.21 69.1108C661.21 68.1702 661.565 67.4016 662.278 66.8059C662.988 66.2103 663.967 65.9119 665.216 65.9119H669.626Z" fill="#005AAA"/>
<path d="M140.66 51.3078V76.5162H149.749V51.0394C149.749 48.6291 151.701 46.6747 154.108 46.6747H167.07V37.575H154.377C146.801 37.575 140.66 43.7232 140.66 51.3078Z" fill="#005AAA"/>
<path d="M199.704 37.5747L190.626 54.9134L180.591 37.5747H170.094L185.62 64.4203L184.647 66.1672C184.148 67.1167 183.171 67.7068 182.101 67.7068H175.675V76.8065H182.101C186.555 76.8065 190.612 74.3563 192.689 70.4099L210.027 37.5747H199.704Z" fill="#005AAA"/>
<path d="M219.271 60.3094L224.877 49.5847C225.715 47.8167 227.521 46.6753 229.477 46.6753H232.184C232.815 46.6753 233.327 47.1867 233.327 47.8189V60.3094H219.271ZM235.558 37.5745H229.477C224.033 37.5745 219.005 40.7556 216.746 45.5218L200.535 76.5346H210.79L214.513 69.4092H233.327V76.5346H242.417V44.4414C242.417 40.6491 239.346 37.5745 235.558 37.5745Z" fill="#005AAA"/>
<path d="M279.23 37.5747H258.649C254.861 37.5747 251.79 40.6493 251.79 44.4416V76.4483H260.88V47.8102C260.88 47.1835 261.387 46.6744 262.013 46.6744H275.865C276.491 46.6744 276.999 47.1835 276.999 47.8102V76.4305H286.089V44.4416C286.089 40.6493 283.018 37.5747 279.23 37.5747Z" fill="#005AAA"/>
<path d="M53.8395 41.7217C41.2083 41.8836 0 43.4775 0 57.1915C0 71.9347 47.5854 72.6812 57.1255 72.6812C66.6646 72.6812 114.25 71.9347 114.25 57.1915C114.25 50.6539 105.664 47.6602 99.2069 45.9776C92.164 44.143 82.6505 42.8109 72.1465 42.1598C72.3182 44.9538 72.4389 47.8222 72.5132 50.7393C91.7075 51.9927 101.859 55.2337 104.98 57.2036C100.754 59.9367 84.4563 64.1338 57.1255 64.1338C29.746 64.1338 13.4399 59.9211 9.24653 57.1892C13.2272 54.5727 28.144 50.5985 53.9481 50.2679C56.3057 50.238 58.1925 48.3002 58.1614 45.941C58.1315 43.5984 56.227 41.7217 53.8949 41.7217C53.8761 41.7217 53.8583 41.7217 53.8395 41.7217" fill="url(#paint0_linear_528_51937)"/>
<path d="M41.6538 57.1908C41.6538 66.7397 42.3994 114.381 57.1257 114.381C63.6523 114.381 66.6425 105.791 68.3232 99.3286C70.1579 92.2742 71.4885 82.7408 72.1388 72.2169C68.9757 72.4054 66.0509 72.5208 63.5703 72.5873C62.3195 91.8106 59.0811 101.976 57.1135 105.101C54.3825 100.868 50.1891 84.5532 50.1891 57.1908C50.1891 29.8006 54.3913 13.4789 57.1212 9.26513C59.7425 13.3547 63.8273 28.9354 64.0511 55.04C64.0711 57.387 65.9778 59.276 68.3188 59.276H68.3564C70.7129 59.2561 72.6074 57.3261 72.5875 54.9668C72.4679 41.0078 71.2159 27.9293 69.0622 18.1397C66.3389 5.76341 62.5455 8.67489e-05 57.1257 8.67489e-05C42.3994 8.67489e-05 41.6538 47.6396 41.6538 57.1908" fill="url(#paint1_linear_528_51937)"/>
<defs>
<linearGradient id="paint0_linear_528_51937" x1="0.000147351" y1="57.2013" x2="114.25" y2="57.2013" gradientUnits="userSpaceOnUse">
<stop stop-color="#45C3F3"/>
<stop offset="0.5" stop-color="#1671C2"/>
<stop offset="0.959876" stop-color="#2056AE"/>
<stop offset="1" stop-color="#2056AE"/>
</linearGradient>
<linearGradient id="paint1_linear_528_51937" x1="57.1205" y1="114.381" x2="57.1205" y2="-0.000631855" gradientUnits="userSpaceOnUse">
<stop stop-color="#2056AE"/>
<stop offset="0.25" stop-color="#2056AE"/>
<stop offset="0.280093" stop-color="#2056AE"/>
<stop offset="0.625" stop-color="#A32B9B"/>
<stop offset="1" stop-color="#ED1443"/>
</linearGradient>
</defs>
</svg>
